<svg xmlns="http://www.w3.org/2000/svg" version="1.1" xmlns:xlink="http://www.w3.org/1999/xlink" xmlns:svgjs="http://svgjs.dev/svgjs" width="1440" height="560" preserveAspectRatio="none" viewBox="0 0 1440 560"><g mask="url(&quot;#SvgjsMask1015&quot;)" fill="none"><path d="M1560 560L0 560 L0 354.41Q17.36 299.77, 72 317.14Q137.17 262.31, 192 327.47Q272.32 287.79, 312 368.11Q332.94 269.05, 432 289.99Q497.02 235.01, 552 300.03Q626.01 302.04, 624 376.05Q615.25 295.3, 696 286.55Q740.9 259.45, 768 304.35Q825.63 289.98, 840 347.61Q865.75 301.37, 912 327.12Q965.17 308.29, 984 361.46Q993.2 298.66, 1056 307.86Q1125.89 257.75, 1176 327.64Q1253.85 285.49, 1296 363.34Q1303.26 298.6, 1368 305.86Q1409.6 275.46, 1440 317.06Q1488.11 245.16, 1560 293.27z" fill="rgba(16, 4, 29, 1)"></path><path d="M1512 560L0 560 L0 422.47Q64.27 366.75, 120 431.02Q148.28 339.3, 240 367.58Q289.89 345.47, 312 395.36Q351.64 315, 432 354.64Q475 325.63, 504 368.63Q580.88 325.51, 624 402.4Q674.96 381.36, 696 432.31Q707.31 371.62, 768 382.92Q789.57 332.49, 840 354.06Q906.7 300.76, 960 367.47Q1034.57 370.04, 1032 444.6Q1071.37 363.97, 1152 403.34Q1202.35 381.69, 1224 432.04Q1228.4 364.45, 1296 368.85Q1323.55 324.4, 1368 351.95Q1424.33 336.27, 1440 392.6Q1495.36 375.96, 1512 431.32z" fill="rgba(22, 6, 37, 1)"></path><path d="M1560 560L0 560 L0 428.09Q44.56 400.65, 72 445.22Q145.36 398.58, 192 471.93Q266.45 426.38, 312 500.83Q335.64 404.47, 432 428.11Q506.76 382.87, 552 457.63Q639.83 425.46, 672 513.3Q700.59 469.88, 744 498.47Q772.6 407.07, 864 435.67Q908.25 407.92, 936 452.16Q980.24 376.4, 1056 420.64Q1116.33 408.97, 1128 469.29Q1208.05 429.34, 1248 509.39Q1266.38 407.76, 1368 426.14Q1413.05 399.19, 1440 444.23Q1522.48 406.71, 1560 489.19z" fill="rgba(28, 9, 47, 1)"></path><path d="M1488 560L0 560 L0 541.04Q63.25 484.29, 120 547.55Q132.06 487.61, 192 499.66Q264.03 451.69, 312 523.72Q366.1 505.82, 384 559.91Q433.97 489.88, 504 539.84Q517.86 481.7, 576 495.56Q653.04 452.6, 696 529.63Q778.75 492.38, 816 575.13Q843.68 530.81, 888 558.49Q918.74 469.23, 1008 499.97Q1049.27 469.24, 1080 510.51Q1138.81 497.32, 1152 556.13Q1202.62 534.75, 1224 585.37Q1228.84 518.21, 1296 523.05Q1319.49 474.53, 1368 498.02Q1446.05 456.07, 1488 534.12z" fill="rgba(35, 16, 54, 1)"></path></g><defs><mask id="SvgjsMask1015"><rect width="1440" height="560" fill="#ffffff"></rect></mask></defs></svg>