<svg id="visual" viewBox="0 0 900 600" width="900" height="600" xmlns="http://www.w3.org/2000/svg" xmlns:xlink="http://www.w3.org/1999/xlink" version="1.1"><path d="M0 177L18.8 180.5C37.7 184 75.3 191 112.8 200.3C150.3 209.7 187.7 221.3 225.2 226.8C262.7 232.3 300.3 231.7 337.8 222.5C375.3 213.3 412.7 195.7 450.2 187.8C487.7 180 525.3 182 562.8 192.8C600.3 203.7 637.7 223.3 675.2 228.3C712.7 233.3 750.3 223.7 787.8 210.7C825.3 197.7 862.7 181.3 881.3 173.2L900 165L900 0L881.3 0C862.7 0 825.3 0 787.8 0C750.3 0 712.7 0 675.2 0C637.7 0 600.3 0 562.8 0C525.3 0 487.7 0 450.2 0C412.7 0 375.3 0 337.8 0C300.3 0 262.7 0 225.2 0C187.7 0 150.3 0 112.8 0C75.3 0 37.7 0 18.8 0L0 0Z" fill="#18052b"></path><path d="M0 156L18.8 163C37.7 170 75.3 184 112.8 183.7C150.3 183.3 187.7 168.7 225.2 161.5C262.7 154.3 300.3 154.7 337.8 155C375.3 155.3 412.7 155.7 450.2 153.2C487.7 150.7 525.3 145.3 562.8 153.2C600.3 161 637.7 182 675.2 188C712.7 194 750.3 185 787.8 172C825.3 159 862.7 142 881.3 133.5L900 125L900 0L881.3 0C862.7 0 825.3 0 787.8 0C750.3 0 712.7 0 675.2 0C637.7 0 600.3 0 562.8 0C525.3 0 487.7 0 450.2 0C412.7 0 375.3 0 337.8 0C300.3 0 262.7 0 225.2 0C187.7 0 150.3 0 112.8 0C75.3 0 37.7 0 18.8 0L0 0Z" fill="#160325"></path><path d="M0 140L18.8 133C37.7 126 75.3 112 112.8 110.8C150.3 109.7 187.7 121.3 225.2 125.7C262.7 130 300.3 127 337.8 121.5C375.3 116 412.7 108 450.2 103.5C487.7 99 525.3 98 562.8 101.2C600.3 104.3 637.7 111.7 675.2 112.2C712.7 112.7 750.3 106.3 787.8 105C825.3 103.7 862.7 107.3 881.3 109.2L900 111L900 0L881.3 0C862.7 0 825.3 0 787.8 0C750.3 0 712.7 0 675.2 0C637.7 0 600.3 0 562.8 0C525.3 0 487.7 0 450.2 0C412.7 0 375.3 0 337.8 0C300.3 0 262.7 0 225.2 0C187.7 0 150.3 0 112.8 0C75.3 0 37.7 0 18.8 0L0 0Z" fill="#130220"></path><path d="M0 90L18.8 88.3C37.7 86.7 75.3 83.3 112.8 84.8C150.3 86.3 187.7 92.7 225.2 97.8C262.7 103 300.3 107 337.8 109.3C375.3 111.7 412.7 112.3 450.2 108.5C487.7 104.7 525.3 96.3 562.8 87.3C600.3 78.3 637.7 68.7 675.2 65.2C712.7 61.7 750.3 64.3 787.8 72.7C825.3 81 862.7 95 881.3 102L900 109L900 0L881.3 0C862.7 0 825.3 0 787.8 0C750.3 0 712.7 0 675.2 0C637.7 0 600.3 0 562.8 0C525.3 0 487.7 0 450.2 0C412.7 0 375.3 0 337.8 0C300.3 0 262.7 0 225.2 0C187.7 0 150.3 0 112.8 0C75.3 0 37.7 0 18.8 0L0 0Z" fill="#0f011b"></path><path d="M0 42L18.8 44C37.7 46 75.3 50 112.8 50.3C150.3 50.7 187.7 47.3 225.2 50.3C262.7 53.3 300.3 62.7 337.8 65C375.3 67.3 412.7 62.7 450.2 62.2C487.7 61.7 525.3 65.3 562.8 67.5C600.3 69.7 637.7 70.3 675.2 68.2C712.7 66 750.3 61 787.8 61.3C825.3 61.7 862.7 67.3 881.3 70.2L900 73L900 0L881.3 0C862.7 0 825.3 0 787.8 0C750.3 0 712.7 0 675.2 0C637.7 0 600.3 0 562.8 0C525.3 0 487.7 0 450.2 0C412.7 0 375.3 0 337.8 0C300.3 0 262.7 0 225.2 0C187.7 0 150.3 0 112.8 0C75.3 0 37.7 0 18.8 0L0 0Z" fill="#0a0015"></path></svg>