<svg id="visual" viewBox="0 0 900 600" width="900" height="600" xmlns="http://www.w3.org/2000/svg" xmlns:xlink="http://www.w3.org/1999/xlink" version="1.1"><rect x="0" y="0" width="900" height="600" fill="#001220"></rect><path d="M0 405L21.5 406.2C43 407.3 86 409.7 128.8 416.2C171.7 422.7 214.3 433.3 257.2 428.5C300 423.7 343 403.3 385.8 403.5C428.7 403.7 471.3 424.3 514.2 422.7C557 421 600 397 642.8 385.8C685.7 374.7 728.3 376.3 771.2 381.3C814 386.3 857 394.7 878.5 398.8L900 403L900 601L878.5 601C857 601 814 601 771.2 601C728.3 601 685.7 601 642.8 601C600 601 557 601 514.2 601C471.3 601 428.7 601 385.8 601C343 601 300 601 257.2 601C214.3 601 171.7 601 128.8 601C86 601 43 601 21.5 601L0 601Z" fill="#1c002e"></path><path d="M0 419L21.5 415.8C43 412.7 86 406.3 128.8 411.7C171.7 417 214.3 434 257.2 445.3C300 456.7 343 462.3 385.8 457.7C428.7 453 471.3 438 514.2 432.2C557 426.3 600 429.7 642.8 433C685.7 436.3 728.3 439.7 771.2 443C814 446.3 857 449.7 878.5 451.3L900 453L900 601L878.5 601C857 601 814 601 771.2 601C728.3 601 685.7 601 642.8 601C600 601 557 601 514.2 601C471.3 601 428.7 601 385.8 601C343 601 300 601 257.2 601C214.3 601 171.7 601 128.8 601C86 601 43 601 21.5 601L0 601Z" fill="#18022b"></path><path d="M0 438L21.5 445C43 452 86 466 128.8 466.8C171.7 467.7 214.3 455.3 257.2 448.3C300 441.3 343 439.7 385.8 448.5C428.7 457.3 471.3 476.7 514.2 477.5C557 478.3 600 460.7 642.8 453.5C685.7 446.3 728.3 449.7 771.2 456.3C814 463 857 473 878.5 478L900 483L900 601L878.5 601C857 601 814 601 771.2 601C728.3 601 685.7 601 642.8 601C600 601 557 601 514.2 601C471.3 601 428.7 601 385.8 601C343 601 300 601 257.2 601C214.3 601 171.7 601 128.8 601C86 601 43 601 21.5 601L0 601Z" fill="#150327"></path><path d="M0 515L21.5 513.7C43 512.3 86 509.7 128.8 511.3C171.7 513 214.3 519 257.2 524.7C300 530.3 343 535.7 385.8 530.5C428.7 525.3 471.3 509.7 514.2 507.7C557 505.7 600 517.3 642.8 522C685.7 526.7 728.3 524.3 771.2 526.5C814 528.7 857 535.3 878.5 538.7L900 542L900 601L878.5 601C857 601 814 601 771.2 601C728.3 601 685.7 601 642.8 601C600 601 557 601 514.2 601C471.3 601 428.7 601 385.8 601C343 601 300 601 257.2 601C214.3 601 171.7 601 128.8 601C86 601 43 601 21.5 601L0 601Z" fill="#120423"></path><path d="M0 572L21.5 569.2C43 566.3 86 560.7 128.8 557.5C171.7 554.3 214.3 553.7 257.2 550.5C300 547.3 343 541.7 385.8 539.8C428.7 538 471.3 540 514.2 542.5C557 545 600 548 642.8 548C685.7 548 728.3 545 771.2 540.5C814 536 857 530 878.5 527L900 524L900 601L878.5 601C857 601 814 601 771.2 601C728.3 601 685.7 601 642.8 601C600 601 557 601 514.2 601C471.3 601 428.7 601 385.8 601C343 601 300 601 257.2 601C214.3 601 171.7 601 128.8 601C86 601 43 601 21.5 601L0 601Z" fill="#0e041e"></path></svg>